<svg width="29" height="28" viewBox="0 0 29 28" fill="none" xmlns="http://www.w3.org/2000/svg">
<path d="M20.5658 1.75H8.43417C4.77712 1.75 1.8125 4.61239 1.8125 8.14333V19.8567C1.8125 23.3876 4.77712 26.25 8.43417 26.25H20.5658C24.2229 26.25 27.1875 23.3876 27.1875 19.8567V8.14333C27.1875 4.61239 24.2229 1.75 20.5658 1.75Z" stroke="white" stroke-linecap="round" stroke-linejoin="round"/>
<path d="M14.5003 20.4163C18.1707 20.4163 21.1462 17.5435 21.1462 13.9997C21.1462 10.4558 18.1707 7.58301 14.5003 7.58301C10.8299 7.58301 7.85449 10.4558 7.85449 13.9997C7.85449 17.5435 10.8299 20.4163 14.5003 20.4163Z" stroke="white" stroke-linecap="round" stroke-linejoin="round"/>
<path d="M21.7497 6.41667C22.0833 6.41667 22.3538 6.1555 22.3538 5.83333C22.3538 5.51117 22.0833 5.25 21.7497 5.25C21.416 5.25 21.1455 5.51117 21.1455 5.83333C21.1455 6.1555 21.416 6.41667 21.7497 6.41667Z" stroke="white" stroke-linecap="round" stroke-linejoin="round"/>
</svg>
