<svg width="29" height="28" viewBox="0 0 29 28" fill="none" xmlns="http://www.w3.org/2000/svg">
<path d="M26.5172 3.22545C25.9864 2.80042 25.2567 2.69104 24.6174 2.94062L2.9677 11.3796C2.01535 11.7581 1.56112 12.8103 1.95311 13.7297C2.15585 14.2053 2.55941 14.5743 3.0621 14.744L7.73259 16.3117L10.2637 24.3918C10.2688 24.4082 10.2844 24.4183 10.291 24.4341C10.3172 24.4985 10.3555 24.5579 10.4038 24.609C10.4218 24.6296 10.4414 24.6489 10.4623 24.6667C10.5254 24.7172 10.5986 24.7546 10.6774 24.7764C10.6894 24.7798 10.6974 24.7901 10.7097 24.7928L10.7168 24.7926L10.7203 24.794C10.7606 24.8027 10.8018 24.8069 10.843 24.8065C10.8969 24.8047 10.9504 24.7957 11.0017 24.7798C11.0117 24.7772 11.0217 24.7779 11.0315 24.7747C11.1192 24.7449 11.1984 24.6959 11.2629 24.6313C11.2704 24.6241 11.2818 24.6228 11.2891 24.6151L14.9306 20.7357L20.243 24.7074C20.5658 24.9511 20.9638 25.0834 21.3735 25.0834C22.2597 25.0832 23.0246 24.4839 23.2072 23.6467L27.1497 4.9595C27.2863 4.31308 27.0431 3.64658 26.5172 3.22545ZM11.5853 17.8441L10.7308 21.8537L8.94866 16.1629L17.7875 11.719L11.7494 17.549C11.6659 17.6297 11.6089 17.7323 11.5853 17.8441ZM22.0237 23.412C21.9774 23.6267 21.8187 23.8028 21.6048 23.8768C21.3958 23.9544 21.1598 23.9198 20.9841 23.7857L15.228 19.4825C14.9788 19.2962 14.6231 19.3264 14.4115 19.552L11.8792 22.2495L12.7323 18.2508L21.4184 9.86315C21.6545 9.63564 21.6548 9.2665 21.4192 9.03864C21.2328 8.85827 20.9467 8.81568 20.7127 8.93346L8.19036 15.2296L3.4574 13.6411C3.19942 13.5592 3.02397 13.328 3.0208 13.0658C3.00833 12.8017 3.17021 12.559 3.42436 12.4608L25.0705 4.02298C25.2966 3.93034 25.5576 3.96915 25.7443 4.12324C25.9302 4.26808 26.0156 4.50171 25.965 4.72708L22.0237 23.412Z" fill="white"/>
</svg>
