<svg width="28" height="28" viewBox="0 0 28 28" fill="none" xmlns="http://www.w3.org/2000/svg">
<g clip-path="url(#clip0_105_1984)">
<path d="M13.9997 0.583021C11.5665 0.583265 9.17919 1.24519 7.09329 2.49794C5.00739 3.75069 3.30144 5.5471 2.15803 7.69488C1.01462 9.84267 0.476815 12.261 0.60217 14.6909C0.727526 17.1209 1.51133 19.471 2.86967 21.4897L0.583008 27.4164L6.68467 25.2347C8.4346 26.3769 10.4271 27.0946 12.5035 27.3306C14.5799 27.5665 16.6826 27.3141 18.6442 26.5936C20.6058 25.8731 22.372 24.7043 23.8019 23.1805C25.2319 21.6566 26.2861 19.8198 26.8806 17.8164C27.4751 15.813 27.5934 13.6984 27.226 11.6412C26.8587 9.58406 26.0159 7.64112 24.7648 5.96728C23.5137 4.29345 21.8889 2.935 20.0199 2.00021C18.1509 1.06541 16.0894 0.580126 13.9997 0.583021V0.583021Z" stroke="white" stroke-linecap="round" stroke-linejoin="round"/>
<path d="M11.0832 16.9163C12.5998 18.433 15.9482 20.4163 17.4998 20.4163C18.1805 20.4234 18.8427 20.1949 19.3742 19.7697C19.9057 19.3445 20.2739 18.7486 20.4165 18.083V16.9163C20.4165 16.9163 18.9815 16.2163 18.0832 15.7497C17.1848 15.283 15.7498 16.9163 15.7498 16.9163C14.658 16.5606 13.6608 15.9624 12.8332 15.1663C12.0372 14.3387 11.4389 13.3415 11.0832 12.2497C11.0832 12.2497 12.7165 10.8147 12.2498 9.91634C11.7832 9.01801 11.0832 7.58301 11.0832 7.58301H9.9165C9.2509 7.72557 8.65504 8.09379 8.22981 8.62532C7.80459 9.15685 7.57614 9.81902 7.58317 10.4997C7.58317 12.0513 9.5665 15.3997 11.0832 16.9163Z" stroke="white" stroke-linecap="round" stroke-linejoin="round"/>
</g>
<defs>
<clipPath id="clip0_105_1984">
<rect width="28" height="28" fill="white"/>
</clipPath>
</defs>
</svg>
