<svg width="28" height="28" viewBox="0 0 28 28" fill="none" xmlns="http://www.w3.org/2000/svg">
<path d="M6.41634 23.917V16.917M4.08301 16.917H8.74967M8.74967 19.2503V22.4587C8.74967 22.6502 8.7874 22.8398 8.86068 23.0167C8.93397 23.1937 9.04139 23.3544 9.17681 23.4899C9.31223 23.6253 9.47299 23.7327 9.64993 23.806C9.82686 23.8793 10.0165 23.917 10.208 23.917H10.7913C10.9829 23.917 11.1725 23.8793 11.3494 23.806C11.5264 23.7327 11.6871 23.6253 11.8225 23.4899C11.958 23.3544 12.0654 23.1937 12.1387 23.0167C12.212 22.8398 12.2497 22.6502 12.2497 22.4587V19.2503M12.2497 22.7503V23.917M20.4163 21.5837H23.9163V20.7087C23.9163 20.5171 23.8786 20.3275 23.8053 20.1506C23.732 19.9736 23.6246 19.8129 23.4892 19.6775C23.3538 19.542 23.193 19.4346 23.0161 19.3613C22.8392 19.288 22.6495 19.2503 22.458 19.2503H21.8747C21.4879 19.2503 21.117 19.404 20.8435 19.6775C20.57 19.951 20.4163 20.3219 20.4163 20.7087V22.4587C20.4163 22.6502 20.4541 22.8398 20.5274 23.0167C20.6006 23.1937 20.7081 23.3544 20.8435 23.4899C20.9789 23.6253 21.1397 23.7327 21.3166 23.806C21.4935 23.8793 21.6832 23.917 21.8747 23.917H22.7497C22.9513 23.9137 23.1486 23.8583 23.3224 23.7561C23.4962 23.6538 23.6405 23.5083 23.7413 23.3337" stroke="white" stroke-linecap="round" stroke-linejoin="round"/>
<path d="M23.3333 14.5833H4.66667C3.05584 14.5833 1.75 15.8891 1.75 17.4999V23.3333C1.75 24.9441 3.05584 26.2499 4.66667 26.2499H23.3333C24.9442 26.2499 26.25 24.9441 26.25 23.3333V17.4999C26.25 15.8891 24.9442 14.5833 23.3333 14.5833Z" stroke="white" stroke-linecap="round" stroke-linejoin="round"/>
<path d="M5.25 1.75L7.58333 7.58333L9.91667 1.75M7.58333 7.58333V12.25" stroke="white" stroke-linecap="round" stroke-linejoin="round"/>
<path d="M14.583 7C14.583 6.0335 13.7995 5.25 12.833 5.25C11.8665 5.25 11.083 6.0335 11.083 7V10.5C11.083 11.4665 11.8665 12.25 12.833 12.25C13.7995 12.25 14.583 11.4665 14.583 10.5V7Z" stroke="white" stroke-linecap="round" stroke-linejoin="round"/>
<path d="M20.417 5.25V10.5C20.417 10.9641 20.2326 11.4092 19.9044 11.7374C19.5762 12.0656 19.1311 12.25 18.667 12.25C18.2029 12.25 17.7577 12.0656 17.4296 11.7374C17.1014 11.4092 16.917 10.9641 16.917 10.5V5.25" stroke="white" stroke-linecap="round" stroke-linejoin="round"/>
<path d="M20.4163 10.5V12.25M14.583 16.9167V23.9167" stroke="white" stroke-linecap="round" stroke-linejoin="round"/>
<path d="M16.6247 19.25H16.0413C15.2359 19.25 14.583 19.9029 14.583 20.7083V22.4583C14.583 23.2637 15.2359 23.9167 16.0413 23.9167H16.6247C17.4301 23.9167 18.083 23.2637 18.083 22.4583V20.7083C18.083 19.9029 17.4301 19.25 16.6247 19.25Z" stroke="white" stroke-linecap="round" stroke-linejoin="round"/>
</svg>
