<svg width="110" height="110" viewBox="0 0 110 110" fill="none" xmlns="http://www.w3.org/2000/svg">
<g clip-path="url(#clip0_105_2034)">
<path d="M55.0001 110C85.3758 110 110 85.3758 110 55.0001C110 24.6244 85.3758 0 55.0001 0C24.6244 0 0 24.6244 0 55.0001C0 85.3758 24.6244 110 55.0001 110Z" fill="#37353D"/>
<path d="M95.9387 54.707H90.8122C90.8122 34.9333 74.7004 18.8214 54.9266 18.8214C35.1529 18.8214 19.0413 34.9335 19.0413 54.707H13.9148C13.9148 32.1505 32.2969 13.7682 54.8536 13.7682C77.5566 13.7684 95.9387 32.1505 95.9387 54.707Z" fill="#F1F3F7"/>
<path d="M55.0001 86.0519C72.3114 86.0519 86.345 72.0183 86.345 54.707C86.345 37.3958 72.3114 23.3622 55.0001 23.3622C37.6888 23.3622 23.6553 37.3958 23.6553 54.707C23.6553 72.0183 37.6888 86.0519 55.0001 86.0519Z" fill="#4F5565"/>
<path d="M55.0001 86.0519C72.3114 86.0519 86.345 72.0183 86.345 54.707C86.345 37.3958 72.3114 23.3622 55.0001 23.3622C37.6888 23.3622 23.6553 37.3958 23.6553 54.707C23.6553 72.0183 37.6888 86.0519 55.0001 86.0519Z" fill="#4F5565"/>
<path d="M65.5456 44.7472C65.5456 44.7472 67.3034 56.0987 79.2408 62.5436V55.7326C79.2408 42.3305 68.4019 31.4916 54.9998 31.4916C41.5977 31.4916 30.7588 42.3305 30.7588 55.7326V63.6421C59.8332 59.8336 65.5456 44.7472 65.5456 44.7472Z" fill="black"/>
<path d="M65.546 44.7472C65.546 44.7472 59.8335 59.8338 30.6857 63.7153V71.9909C30.6857 85.3929 41.5246 96.2319 54.9267 96.2319C68.3287 96.2319 79.1677 85.3929 79.1677 71.9909V62.5435C67.3037 56.0987 65.546 44.7472 65.546 44.7472Z" fill="#F6CEB0"/>
<path d="M16.5512 49.7269C13.5485 49.7269 11.1318 52.1436 11.1318 55.1463V71.3314C11.1318 74.334 13.5485 76.7507 16.5512 76.7507C19.5539 76.7507 21.9706 74.334 21.9706 71.3314V55.1463C22.044 52.1438 19.5539 49.7269 16.5512 49.7269Z" fill="#F1F3F7"/>
<path d="M10.9854 55.1466C6.51809 55.1466 2.92944 58.7352 2.92944 63.2025C2.92944 67.6698 6.51809 71.2585 10.9854 71.2585H11.1318V55.1466H10.9854Z" fill="white"/>
<path d="M93.4493 76.7511C96.4519 76.7511 98.8686 74.3344 98.8686 71.3317V55.1467C98.8686 52.144 96.4519 49.7273 93.4493 49.7273C90.4466 49.7273 88.0299 52.144 88.0299 55.1467V71.3317C87.9565 74.3344 90.4466 76.7511 93.4493 76.7511Z" fill="#F1F3F7"/>
<path d="M99.0149 71.2585C103.482 71.2585 107.071 67.6698 107.071 63.2025C107.071 58.7352 103.482 55.1466 99.0149 55.1466H98.8684V71.2585H99.0149Z" fill="white"/>
</g>
<defs>
<clipPath id="clip0_105_2034">
<rect width="110" height="110" fill="white"/>
</clipPath>
</defs>
</svg>
